<mxfile host="Electron" modified="2023-08-27T15:02:01.776Z" agent="Mozilla/5.0 (Windows NT 10.0; Win64; x64) AppleWebKit/537.36 (KHTML, like Gecko) draw.io/21.6.8 Chrome/114.0.5735.289 Electron/25.5.0 Safari/537.36" etag="2soHS96FkiJRJWKfKLvP" version="21.6.8" type="device">
  <diagram name="Page-1" id="Xz7JLN1gVyghV_8wE1UY">
    <mxGraphModel dx="592" dy="346" grid="1" gridSize="10" guides="1" tooltips="1" connect="1" arrows="1" fold="1" page="1" pageScale="1" pageWidth="850" pageHeight="1100" math="0" shadow="0">
      <root>
        <mxCell id="0" />
        <mxCell id="1" parent="0" />
        <mxCell id="KpfcxOSb_-0hNQX8VLAN-7" value="" style="rounded=0;whiteSpace=wrap;html=1;" vertex="1" parent="1">
          <mxGeometry x="190" y="10" width="290" height="290" as="geometry" />
        </mxCell>
        <mxCell id="KpfcxOSb_-0hNQX8VLAN-12" style="edgeStyle=orthogonalEdgeStyle;rounded=0;orthogonalLoop=1;jettySize=auto;html=1;entryX=0;entryY=0.5;entryDx=0;entryDy=0;" edge="1" parent="1" source="KpfcxOSb_-0hNQX8VLAN-1" target="KpfcxOSb_-0hNQX8VLAN-8">
          <mxGeometry relative="1" as="geometry" />
        </mxCell>
        <mxCell id="KpfcxOSb_-0hNQX8VLAN-1" value="Actor" style="shape=umlActor;verticalLabelPosition=bottom;verticalAlign=top;html=1;outlineConnect=0;" vertex="1" parent="1">
          <mxGeometry x="130" y="30" width="30" height="60" as="geometry" />
        </mxCell>
        <mxCell id="KpfcxOSb_-0hNQX8VLAN-11" style="edgeStyle=orthogonalEdgeStyle;rounded=0;orthogonalLoop=1;jettySize=auto;html=1;" edge="1" parent="1" source="KpfcxOSb_-0hNQX8VLAN-2" target="KpfcxOSb_-0hNQX8VLAN-10">
          <mxGeometry relative="1" as="geometry" />
        </mxCell>
        <mxCell id="KpfcxOSb_-0hNQX8VLAN-2" value="Actor" style="shape=umlActor;verticalLabelPosition=bottom;verticalAlign=top;html=1;outlineConnect=0;" vertex="1" parent="1">
          <mxGeometry x="130" y="200" width="30" height="60" as="geometry" />
        </mxCell>
        <mxCell id="KpfcxOSb_-0hNQX8VLAN-5" value="dog" style="text;html=1;align=center;verticalAlign=middle;resizable=0;points=[];autosize=1;strokeColor=none;fillColor=none;" vertex="1" parent="1">
          <mxGeometry x="80" y="48" width="40" height="30" as="geometry" />
        </mxCell>
        <mxCell id="KpfcxOSb_-0hNQX8VLAN-6" value="owner" style="text;html=1;align=center;verticalAlign=middle;resizable=0;points=[];autosize=1;strokeColor=none;fillColor=none;" vertex="1" parent="1">
          <mxGeometry x="70" y="215" width="60" height="30" as="geometry" />
        </mxCell>
        <mxCell id="KpfcxOSb_-0hNQX8VLAN-8" value="recognize bark and open door" style="ellipse;whiteSpace=wrap;html=1;" vertex="1" parent="1">
          <mxGeometry x="280" y="34" width="120" height="52" as="geometry" />
        </mxCell>
        <mxCell id="KpfcxOSb_-0hNQX8VLAN-10" value="press button and open/close door" style="ellipse;whiteSpace=wrap;html=1;" vertex="1" parent="1">
          <mxGeometry x="280" y="200" width="120" height="60" as="geometry" />
        </mxCell>
      </root>
    </mxGraphModel>
  </diagram>
</mxfile>
